<?xml version="1.0" encoding="UTF-8" standalone="no"?><!DOCTYPE svg PUBLIC "-//W3C//DTD SVG 1.1//EN" "http://www.w3.org/Graphics/SVG/1.1/DTD/svg11.dtd"><svg width="100%" height="100%" viewBox="0 0 8125 8125" version="1.1" xmlns="http://www.w3.org/2000/svg" xmlns:xlink="http://www.w3.org/1999/xlink" xml:space="preserve" xmlns:serif="http://www.serif.com/" style="fill-rule:evenodd;clip-rule:evenodd;stroke-linejoin:round;stroke-miterlimit:2;"><path d="M2738.33,5371.54c-6.416,3.85 -174.996,-106.538 -179.275,-118.092c-3.85,-10.267 -4.708,-13.262 -4.708,-20.108c0,-2.996 -26.954,1.283 -23.958,-29.525c3.421,-34.23 3.421,-33.8 1.283,-49.63c-1.283,-7.274 1.283,-18.829 5.992,-27.812c10.696,-19.683 24.387,-63.325 38.504,-83.433c14.55,-20.109 62.471,-141.196 67.175,-168.579c3.854,-23.959 -5.563,-59.471 -19.254,-65.463c-6.417,-2.996 -13.263,-6.846 -14.546,-8.558c-1.284,-2.138 -8.129,-1.713 -14.975,0.858c-6.846,2.567 -19.254,3.85 -27.384,2.992c-8.129,-1.284 -22.25,1.712 -31.662,5.991c-9.413,4.279 -18.825,6.417 -20.967,5.134c-6.416,-3.85 -80.008,-5.134 -80.008,-1.713c-0,3.425 -18.825,13.267 -25.671,13.267c-2.142,-0 -7.704,-3.85 -12.408,-8.988c-5.138,-5.562 -10.271,-7.7 -13.692,-5.562c-3.425,1.712 -24.392,3.854 -47.496,4.279c-41.929,1.283 -49.629,-1.283 -52.2,-16.688c-0.425,-3.42 -3.85,-9.412 -8.129,-13.262c-6.846,-6.846 -8.983,-12.833 -7.7,-20.967c0.854,-4.704 -19.254,-3.85 -30.379,1.713c-5.563,2.566 -13.692,10.696 -18.396,17.971c-6.846,10.695 -11.983,14.12 -23.962,14.975c-20.538,1.712 -27.813,-6.846 -21.392,-25.242c2.567,-7.704 4.704,-16.263 4.704,-19.254c0,-8.129 -26.525,-15.404 -39.362,-10.7c-8.984,3.425 -13.692,2.141 -26.1,-6.417c-19.68,-13.262 -22.25,-12.833 -33.371,2.567c-17.971,24.387 -53.484,26.529 -48.35,2.996c8.129,-37.65 3.85,-52.2 -16.259,-55.621c-44.925,-7.704 -55.625,-11.125 -63.754,-19.684l-8.983,-9.841l-11.554,11.125c-13.263,12.837 -26.525,14.121 -36.796,3.85c-5.988,-5.988 -9.413,-6.417 -20.108,-2.138c-15.405,5.563 -29.096,0.429 -29.096,-11.554c-0,-14.975 -11.125,-19.679 -30.379,-11.979c-17.113,6.846 -17.542,6.846 -28.238,-3.85c-5.992,-5.992 -14.121,-11.125 -17.971,-11.125c-8.983,-0.429 -56.904,16.258 -78.3,26.954c-9.412,4.708 -31.662,12.408 -49.633,16.688c-29.092,7.275 -80.438,30.379 -130.071,59.046c-8.983,5.133 -16.258,7.699 -16.258,5.991c-0,-1.712 -1.709,-0.858 -3.421,1.708c-4.279,6.421 -32.517,20.538 -59.475,29.096c-12.408,4.28 -22.675,8.988 -22.675,11.125c-0,2.138 -5.563,4.709 -12.408,6.417c-6.846,1.283 -26.53,9.842 -43.642,18.829c-17.542,8.983 -48.779,22.675 -70.171,30.375c-20.967,7.704 -41.504,16.688 -44.925,19.254c-11.125,8.559 -61.183,38.938 -87.712,53.059c-14.121,7.7 -29.525,15.829 -34.23,18.825c-4.279,2.995 -15.833,9.841 -25.67,15.829c-9.413,5.562 -41.934,23.104 -72.738,38.508c-71.883,36.371 -87.283,45.354 -102.687,59.9c-12.838,12.408 -40.221,25.675 -63.755,31.663c-6.845,1.712 -22.245,9.412 -34.229,16.687c-11.979,7.7 -29.521,17.542 -38.508,21.821c-37.221,17.542 -119.371,76.588 -154.458,111.675c-11.98,11.55 -29.092,26.954 -37.65,33.371c-8.559,6.421 -31.663,28.242 -51.346,48.35c-19.254,20.108 -43.213,44.496 -53.484,54.337c-10.266,9.842 -22.675,24.388 -27.808,32.946c-5.137,8.129 -10.7,16.688 -12.408,19.254c-16.688,20.538 -38.938,63.325 -46.638,88.567c-5.133,17.117 -13.691,36.8 -18.825,44.071c-9.841,12.837 -13.691,22.25 -17.116,41.504c-5.992,30.379 -7.7,39.792 -6.846,41.075c0.429,0.429 -2.138,6.417 -5.563,12.838c-6.416,12.833 -12.408,39.787 -11.979,56.475c0.429,9.841 0.429,36.37 0,71.454c0,7.7 3.421,19.254 7.7,25.245c10.271,14.117 33.804,49.63 51.771,77.013c28.667,44.071 55.625,77.875 72.737,91.138c10.271,7.7 26.1,21.391 35.088,29.95c38.079,35.083 93.275,77.441 100.546,77.441c1.283,0 10.271,5.563 20.537,11.984c10.271,6.845 26.959,15.829 37.654,19.679c10.696,4.279 32.946,16.687 49.205,27.812c32.516,22.25 53.908,33.375 70.595,36.367c5.992,0.858 33.805,7.704 62.042,14.975c52.625,13.692 58.188,14.979 91.563,20.537c10.695,1.713 20.537,3.425 21.82,3.425c10.696,2.138 45.355,6.846 47.067,5.992c1.283,-0.429 6.417,1.283 11.55,3.85c5.138,2.996 21.396,6.417 36.371,7.7c30.379,3.425 26.525,3.425 63.321,-0.429c15.404,-1.284 43.216,-3.421 62.041,-4.275c68.03,-3.425 104.83,-5.992 108.25,-8.129c1.713,-0.859 9.842,-2.996 17.971,-4.28c21.821,-3.425 67.175,-14.12 71.879,-16.687c2.142,-1.713 10.271,-3.85 18.4,-5.133c30.809,-5.563 155.317,-36.8 159.592,-40.221c2.571,-2.138 12.408,-5.992 21.825,-8.984c9.413,-2.995 29.092,-11.125 43.642,-17.97c14.546,-6.421 27.808,-11.984 29.95,-11.984c1.712,-0.425 11.125,-3.85 20.537,-8.554c9.413,-4.708 18.825,-8.129 20.963,-8.558c2.141,-0 22.25,-8.559 44.929,-18.825c42.783,-19.684 73.162,-30.809 92.846,-34.229c10.696,-2.142 58.187,-22.68 76.587,-33.805c20.538,-11.55 100.975,-50.058 110.817,-52.625c11.554,-2.566 37.65,-15.404 46.637,-22.25c7.7,-5.991 77.017,-33.8 128.359,-52.2c25.671,-8.558 51.771,-19.679 57.762,-24.387c6.417,-4.279 25.246,-13.692 41.504,-20.108c29.95,-12.409 42.784,-17.971 106.109,-47.067c18.4,-8.558 35.941,-15.404 38.937,-15.404c2.567,-0 6.846,-1.709 9.413,-3.85c2.137,-2.138 18.396,-8.559 36.366,-14.546c18.4,-5.992 41.505,-14.975 51.346,-20.113c10.267,-5.133 26.525,-9.837 35.942,-11.12c9.412,-1.288 35.512,-8.134 57.758,-15.405c22.25,-7.275 46.638,-14.12 53.484,-14.975c7.275,-0.858 29.95,-4.279 50.916,-7.704c21.392,-3.85 45.354,-7.7 53.484,-8.554c8.558,-0.858 23.962,-2.996 34.658,-4.279c10.696,-1.283 27.808,-3.425 38.508,-4.708c10.696,-0.855 23.104,-3.421 27.809,-4.705c14.12,-4.279 88.57,-4.279 104.829,0c8.129,2.138 25.671,4.705 38.508,5.134c12.833,0.429 33.371,3.85 44.925,7.7c11.979,3.85 27.383,7.704 34.229,8.987c20.538,2.992 50.059,10.267 69.742,17.113c9.842,3.425 17.971,5.562 17.971,4.279c-0,-1.283 2.566,-0.854 5.562,1.283c2.567,1.713 7.7,3.425 11.125,4.279c3.421,0.43 19.25,6.846 35.084,14.121c15.829,7.271 32.945,14.117 38.508,14.975c17.542,3.421 40.217,11.55 46.637,17.113c8.984,7.275 34.23,20.112 34.23,17.116c-0,-1.712 5.133,0.425 11.979,3.85c6.416,3.421 21.821,11.125 34.658,17.542c12.408,5.992 38.508,21.392 57.763,33.8c18.825,12.838 52.195,32.521 73.162,43.646c53.913,28.237 84.717,50.058 134.35,94.554c5.563,4.708 14.975,11.554 21.392,14.55c11.554,5.988 51.346,35.083 98.837,72.308c15.404,11.98 39.363,27.813 53.484,35.084c14.12,7.275 43.212,25.246 64.179,39.791c35.087,24.392 61.612,38.938 79.154,42.788c3.425,0.854 18.4,6.417 32.946,12.408c14.975,5.992 29.525,11.125 33.375,11.125c3.421,0 13.691,7.275 22.675,16.688c10.271,10.696 18.829,15.829 24.392,14.546c22.245,-3.85 25.241,-2.996 30.804,7.7c7.275,14.979 29.095,20.112 72.308,17.97c18.825,-1.283 66.746,-2.137 106.538,-2.566c62.47,-0.425 74.879,0.429 87.287,7.275c12.408,6.416 17.113,6.846 34.229,2.566c26.1,-6.845 34.654,-8.129 56.904,-10.266c10.271,-0.859 27.813,-3.854 39.363,-5.992c11.554,-2.567 26.1,-2.567 32.946,-0.854c13.691,4.275 37.654,1.283 45.354,-5.138c6.421,-5.133 20.112,-0.854 16.258,4.709c-3.421,6.416 14.55,17.112 25.675,14.975c5.133,-0.854 20.538,-6.417 33.8,-12.838c17.113,-7.7 31.233,-11.125 50.488,-11.125c14.975,0 30.808,-2.137 35.512,-4.704c4.708,-2.567 17.971,-4.708 29.521,-5.562c14.121,-0.855 32.092,-6.417 56.479,-18.4c19.254,-9.838 38.938,-17.542 43.217,-17.542c17.112,-0 25.671,-5.563 36.796,-23.533c14.12,-23.53 27.383,-28.238 45.779,-14.975c16.687,11.983 23.533,8.987 34.658,-14.975c8.558,-17.971 12.838,-21.392 23.104,-19.255c2.567,0.43 14.55,1.284 27.384,1.713c20.966,0.854 24.387,-0.429 38.079,-13.692c14.975,-13.691 18.829,-14.546 38.937,-8.983c5.134,1.708 17.542,-15.833 21.392,-30.379c19.254,-74.45 22.25,-84.292 30.808,-90.709c8.559,-7.275 9.413,-7.275 16.259,2.138c8.983,11.554 15.404,26.1 17.112,37.225c0.429,3.85 13.267,6.421 13.267,2.996c-0,-0.854 2.137,-11.979 4.279,-24.817c5.133,-28.237 8.983,-64.608 10.267,-104.4c1.283,-26.525 2.995,-32.517 16.687,-52.625c8.558,-12.408 17.971,-30.808 20.538,-40.646c5.562,-19.254 7.275,-87.287 2.566,-106.966c-4.279,-20.538 -16.687,-56.05 -21.391,-62.042c-2.142,-2.567 -2.567,-5.133 -0.859,-5.133c4.279,-0 -22.675,-33.375 -47.921,-59.046c-11.979,-12.409 -21.391,-24.817 -20.537,-27.813c10.271,-29.521 2.142,-40.216 -53.908,-73.162c-19.684,-11.554 -36.796,-22.25 -38.079,-23.963c-1.288,-1.283 -10.7,-8.983 -21.396,-17.112c-32.088,-24.817 -72.738,-68.888 -83.863,-90.279c-9.837,-19.684 -9.837,-20.538 -2.137,-29.955c10.695,-13.262 25.241,-8.129 40.221,13.692c12.833,18.829 34.654,30.379 50.487,26.958c5.563,-0.858 18.396,-2.566 28.238,-3.425c9.412,-1.283 21.82,-3.85 26.954,-6.845c33.375,-17.971 94.133,-26.1 145.475,-19.68c21.391,2.567 78.729,7.271 112.1,8.984c15.404,0.854 32.091,3.425 36.795,5.991c4.28,2.138 12.838,5.134 18.4,6.417c19.684,3.85 57.763,18.825 92.417,36.367c18.829,9.416 36.371,17.546 38.508,17.546c6.421,-0 60.33,29.091 72.309,39.362c26.1,21.821 52.629,50.058 59.475,63.75c4.279,8.129 18.825,29.096 32.091,46.638c13.263,17.541 26.1,35.941 28.667,40.65c8.129,15.4 28.238,76.587 32.088,96.266c5.133,27.384 5.133,28.242 11.979,35.942c2.996,4.279 8.558,5.992 11.983,4.708c6.417,-2.571 27.808,17.967 37.225,36.367c5.133,9.842 17.113,51.346 21.821,74.45c9.837,50.912 8.983,124.079 -2.142,153.175c-2.137,5.562 -3.85,11.125 -4.279,13.262c-3.421,26.955 -19.679,61.613 -34.654,74.021c-14.55,12.409 -15.833,17.117 -5.992,27.813c11.125,11.979 1.284,32.087 -32.516,67.175c-16.259,16.683 -27.384,30.375 -24.817,29.521c2.996,-0.43 8.983,-3.85 13.262,-7.7c10.271,-8.988 17.117,-8.13 30.809,4.704c11.979,11.125 13.691,23.962 4.704,36.371c-3.421,4.704 -8.983,19.254 -12.833,31.662c-7.275,24.813 -29.955,54.338 -78.3,101.404c-19.684,19.25 -29.096,32.088 -35.942,50.488c-7.275,20.108 -17.113,33.371 -52.629,69.312c-23.529,24.388 -49.204,50.488 -56.475,58.192c-19.684,20.537 -39.792,37.65 -44.071,37.65c-2.142,0 -4.708,1.713 -5.563,3.425c-0.429,2.137 -11.979,11.121 -24.816,20.537c-45.354,33.371 -92.417,59.042 -129.217,70.596c-39.787,12.838 -50.912,17.542 -59.9,26.529c-10.696,10.696 -44.071,32.088 -78.3,50.059c-18.825,9.841 -38.504,21.821 -43.212,26.529c-5.992,5.133 -17.117,8.983 -31.234,9.837c-12.408,0.859 -28.241,5.138 -35.941,8.988c-46.638,24.817 -47.067,24.817 -87.284,25.671c-25.671,0.858 -42.787,3.425 -49.204,7.275c-7.704,5.133 -21.396,6.416 -59.904,5.133c-47.921,-1.283 -50.058,-0.854 -46.208,6.417c4.708,8.987 -4.28,20.966 -16.259,21.821c-26.529,0.858 -74.875,4.279 -92.846,5.991c-11.554,0.854 -33.8,1.713 -48.775,2.142c-14.979,-0 -29.954,2.137 -32.945,4.704c-2.996,2.567 -14.121,4.708 -24.392,4.708c-16.258,0 -19.679,1.284 -23.958,10.696c-4.709,10.696 -5.992,10.696 -29.525,7.7c-30.375,-4.279 -52.196,-5.987 -101.4,-8.129c-30.38,-1.283 -41.934,-3.421 -54.767,-11.125c-14.121,-8.554 -19.683,-8.983 -47.496,-6.846c-34.654,2.996 -53.483,-1.708 -84.287,-20.962c-9.842,-6.421 -23.105,-12.409 -29.096,-12.838c-5.992,-0.429 -16.688,-3.425 -23.534,-5.991c-20.108,-8.13 -80.008,-52.2 -103.112,-76.159c-11.554,-11.979 -30.808,-27.812 -42.788,-35.083c-11.554,-7.704 -29.095,-21.821 -38.508,-31.663c-9.842,-9.841 -22.25,-21.82 -27.812,-26.958c-5.988,-4.704 -18.396,-17.542 -27.384,-28.667c-9.412,-11.125 -32.516,-30.804 -51.771,-44.495c-34.658,-24.388 -62.041,-54.767 -83.862,-94.13c-12.833,-22.679 -29.092,-32.52 -47.921,-29.095c-12.408,2.566 -14.546,1.283 -19.679,-9.413c-14.975,-32.092 -19.683,-41.075 -25.675,-47.921c-3.85,-4.279 -13.692,-16.258 -21.821,-26.1c-19.254,-23.962 -60.329,-64.179 -65.462,-64.179c-2.138,0 -8.984,-5.137 -15.405,-11.983c-16.683,-15.829 -59.47,-53.054 -70.595,-60.754c-5.134,-3.425 -13.692,-10.696 -18.825,-16.259c-5.138,-5.137 -13.267,-9.412 -18.4,-9.412c-10.267,-0 -23.105,-6.421 -32.946,-16.263c-3.85,-3.85 -19.679,-16.683 -35.084,-28.666c-15.404,-11.55 -30.379,-23.53 -33.8,-26.955c-2.995,-2.995 -13.691,-9.412 -23.533,-14.545c-9.412,-4.709 -29.95,-17.971 -45.354,-28.667c-31.663,-23.108 -52.2,-34.229 -145.475,-79.158c-36.367,-17.542 -73.163,-32.946 -81.296,-34.23c-21.821,-3.42 -38.504,-8.983 -58.617,-18.825c-9.412,-5.133 -30.804,-12.833 -46.637,-17.112c-16.258,-4.708 -36.796,-11.125 -45.354,-14.975c-8.554,-3.425 -16.259,-5.992 -17.113,-5.138c-0.854,1.284 -10.696,-0.854 -21.821,-4.279c-11.125,-3.421 -20.108,-5.133 -20.108,-4.275c0,0.854 -6.846,-1.283 -15.404,-4.708c-8.558,-3.421 -32.092,-7.275 -52.629,-8.129c-20.109,-0.854 -43.642,-2.996 -51.771,-4.709c-23.958,-4.704 -133.492,-1.708 -152.746,4.28c-4.279,1.283 -14.55,3.425 -22.679,4.708c-8.129,1.283 -24.817,5.987 -36.796,10.696c-11.979,4.279 -29.521,8.983 -38.508,10.271c-28.238,4.275 -35.084,5.987 -44.496,11.12c-4.708,2.571 -21.821,9.417 -37.654,14.975c-32.088,11.125 -88.138,31.663 -89.421,32.521c-0.858,0.425 -2.571,0.854 -4.279,1.709c-7.275,1.712 -22.25,8.133 -59.046,25.675c-20.967,9.841 -57.763,25.241 -81.296,34.229c-23.533,8.554 -63.75,26.1 -89.85,38.508c-75.733,36.367 -98.408,46.638 -100.55,47.063c-5.133,0.858 -72.308,35.087 -89.421,45.783c-10.271,6.417 -33.375,17.542 -51.346,24.817c-17.97,7.27 -41.929,17.97 -53.912,23.529c-17.967,8.133 -37.221,15.833 -98.408,38.937c-4.705,1.713 -9.413,3.425 -10.696,3.85c-1.284,0.859 -6.417,2.567 -11.55,4.279c-5.563,1.713 -9.842,4.709 -9.842,5.992c0,1.708 -2.567,3.421 -5.137,3.85c-8.13,0.429 -41.5,12.838 -65.463,24.388c-11.55,5.562 -35.937,14.975 -53.908,20.966c-17.971,5.563 -41.934,14.975 -53.484,20.963c-11.554,5.991 -29.525,12.837 -40.22,15.833c-10.696,2.996 -21.821,5.992 -24.817,6.846c-2.996,0.854 -5.988,1.712 -7.271,1.712c-0.858,0.425 -15.833,6.846 -32.946,14.546c-29.954,13.263 -79.158,29.95 -101.833,34.229c-5.992,1.284 -22.25,5.134 -35.942,8.984c-14.116,3.425 -32.516,7.704 -40.646,8.987c-8.558,1.284 -18.4,2.996 -21.82,3.85c-3.425,1.284 -13.692,2.996 -22.68,4.279c-8.983,1.713 -22.675,5.563 -30.804,8.984c-8.129,2.996 -18.825,5.991 -24.387,5.991c-20.538,0.43 -93.275,3.85 -140.342,6.417c-26.954,1.283 -50.917,2.567 -53.483,2.567l-25.671,-0c-82.15,0.858 -114.242,0.429 -134.779,-1.709c-50.059,-5.137 -84.717,-10.695 -89.421,-13.691c-1.713,-0.859 -10.271,-2.567 -19.683,-3.85c-9.413,-1.713 -33.371,-8.559 -53.484,-15.834c-20.108,-6.845 -49.633,-16.687 -66.316,-21.391c-16.259,-4.709 -43.642,-15.404 -60.33,-23.104c-34.229,-16.688 -52.629,-24.392 -60.758,-26.1c-2.996,-0.43 -10.696,-4.28 -17.112,-8.559c-6.421,-4.279 -35.088,-19.683 -63.755,-34.229c-28.666,-14.546 -69.741,-38.937 -91.562,-53.912c-47.492,-32.088 -153.604,-135.205 -176.279,-170.717c-8.129,-13.263 -17.117,-25.671 -19.684,-27.383c-5.133,-2.996 -47.491,-64.18 -47.491,-68.03c-0,-1.283 -6.846,-16.687 -14.975,-34.229c-8.129,-17.546 -14.975,-34.229 -14.975,-36.371c-0,-2.566 -16.259,-37.65 -35.942,-78.3l-35.942,-74.02l1.284,-36.367c0.429,-20.108 3.425,-44.925 6.421,-55.196c2.566,-10.267 5.562,-30.375 6.416,-44.925c1.713,-31.662 9.413,-80.008 14.975,-94.129c2.138,-5.563 2.996,-11.125 1.713,-11.979c-2.996,-3.425 10.266,-66.321 17.112,-79.159c3.425,-6.845 11.125,-28.666 17.542,-48.345c13.267,-41.505 59.475,-132.638 83.862,-165.584c9.413,-12.408 16.688,-23.962 16.688,-25.675c-0,-1.708 6.846,-13.262 15.404,-24.812c8.554,-11.984 16.688,-25.246 18.825,-29.954c1.713,-4.705 17.542,-27.809 34.229,-51.342c17.113,-23.533 38.079,-52.2 46.209,-63.75c12.408,-17.546 42.358,-48.35 136.062,-138.629c5.563,-5.563 43.642,-32.092 84.288,-59.046c105.254,-69.742 107.825,-71.454 153.175,-94.988c47.066,-24.387 60.758,-32.087 63.754,-35.083c1.283,-1.283 10.266,-5.992 20.108,-10.271c9.842,-4.275 23.533,-13.691 30.379,-20.108c7.275,-6.846 36.796,-23.104 65.892,-36.367c106.537,-47.921 181.412,-87.287 190.4,-100.121c2.996,-3.85 14.546,-10.695 25.671,-14.975c11.125,-4.279 32.946,-13.691 48.35,-20.966c15.4,-6.846 29.95,-13.263 32.087,-13.692c2.567,-0.429 14.55,-6.846 26.959,-14.121c12.408,-7.271 25.241,-13.262 28.237,-13.262c2.996,-0 20.967,-9.842 39.363,-22.25c18.825,-11.979 51.345,-29.521 72.308,-38.934c21.396,-9.412 39.367,-18.4 40.65,-20.112c2.567,-3.421 63.75,-36.796 109.104,-59.9c16.688,-8.129 41.075,-21.821 54.767,-29.95c21.391,-12.838 24.816,-17.113 26.954,-30.804c2.142,-12.409 5.137,-16.688 15.404,-20.113c6.846,-2.566 11.979,-6.846 11.125,-9.841c-3.425,-14.975 30.804,-94.984 58.188,-135.634c8.558,-12.404 15.404,-25.241 15.404,-28.666c-0,-2.992 9.412,-34.23 21.396,-68.884c13.262,-40.65 21.82,-74.021 23.529,-93.275c4.708,-59.9 46.637,-194.679 79.158,-256.721c15.829,-29.95 29.521,-70.595 31.658,-94.983c2.142,-25.246 11.125,-50.487 30.38,-85.575c8.129,-14.546 18.829,-38.933 23.533,-53.483c16.687,-50.917 48.35,-128.359 68.458,-167.296c25.671,-49.629 71.884,-137.771 80.867,-154.883c3.85,-7.275 18.4,-31.663 32.517,-54.767c14.12,-22.679 30.379,-50.917 36.37,-62.042c17.113,-32.091 62.467,-97.983 80.867,-116.808c3.85,-3.85 10.696,-12.408 15.4,-18.825c4.708,-6.417 12.838,-17.542 17.971,-24.388c5.137,-7.275 8.129,-15.404 6.846,-18.825c-5.134,-13.691 30.808,-52.2 95.416,-102.262c8.984,-7.271 26.525,-22.675 38.505,-34.229c25.675,-24.817 67.604,-59.471 91.566,-75.304c8.984,-5.988 22.675,-16.259 30.375,-22.675c7.704,-6.421 21.821,-15.405 31.238,-20.113c17.112,-8.129 53.908,-38.504 53.908,-44.925c0,-7.271 23.104,-32.517 46.208,-50.058c13.267,-10.271 44.5,-29.096 69.317,-41.504c24.817,-11.98 45.779,-23.534 47.063,-25.242c4.279,-5.563 37.225,-25.675 70.6,-43.217c18.825,-9.841 41.075,-25.241 49.204,-33.8c22.675,-24.816 66.321,-55.196 93.275,-65.462c13.262,-5.138 25.241,-9.413 26.525,-9.842c14.55,-1.283 86.429,-32.517 94.133,-40.646c4.704,-4.708 29.95,-21.396 32.517,-21.396c1.283,0 9.412,-5.562 17.112,-12.833c8.134,-6.846 20.113,-13.692 26.529,-14.979c23.105,-4.704 106.113,-24.813 125.792,-30.804c15.404,-4.279 20.538,-8.129 23.963,-17.542c3.42,-10.271 8.983,-13.692 35.512,-22.25c17.542,-5.133 35.513,-11.125 40.217,-13.262c36.371,-13.692 44.929,-16.259 44.929,-14.55c-0,1.283 3.421,0.429 7.7,-1.709c9.412,-5.137 69.312,-20.966 90.708,-24.391c8.129,-1.284 25.671,-5.134 38.509,-8.13c12.833,-3.42 34.229,-7.7 47.062,-10.266c12.838,-2.567 28.242,-5.563 33.804,-6.417c18.825,-4.279 17.967,-10.271 -2.141,-13.692c-31.663,-5.562 -15.83,-18.4 25.245,-21.395c14.546,-0.855 36.367,-2.567 47.921,-3.85c58.617,-5.992 85.571,-7.7 132.638,-8.559c51.771,-1.283 70.596,-4.279 70.596,-11.125c-0,-2.137 -8.984,-4.279 -20.109,-4.279c-44.925,-1.708 -55.621,-2.567 -62.041,-6.417c-10.696,-5.987 -0,-12.408 22.25,-12.833c38.079,-1.287 122.37,-5.992 149.754,-8.558c15.4,-1.284 66.316,-2.567 113.383,-2.996c71.454,-0.854 87.713,-2.138 98.838,-8.129c11.12,-5.992 31.233,-7.7 121.941,-9.842c223.342,-5.562 328.6,-3.85 342.717,4.708c8.558,5.563 34.229,6.846 135.204,8.13c54.767,0.425 100.55,2.137 102.263,3.42c5.133,5.563 26.954,2.996 26.954,-2.995c-0,-4.705 -42.788,-67.6 -51.342,-75.305c-1.283,-1.283 -5.137,-7.7 -8.987,-14.116c-3.85,-6.846 -14.121,-21.396 -23.105,-32.946c-16.258,-20.538 -61.183,-111.675 -73.166,-149.325c-3.85,-10.696 -9.413,-26.1 -12.834,-33.375c-3.425,-7.7 -7.275,-23.104 -8.558,-34.229c-0.854,-11.55 -2.996,-23.959 -4.279,-27.809c-1.283,-3.854 -2.996,-10.7 -3.85,-14.979c-0.854,-4.275 -2.996,-15.4 -5.133,-24.812c-2.142,-9.417 -2.996,-21.821 -1.284,-27.813c1.709,-5.991 2.138,-24.387 1.709,-40.646c-1.284,-35.512 5.991,-63.754 28.241,-111.245c14.121,-29.95 22.675,-40.221 64.179,-80.013c52.63,-50.917 74.021,-65.462 102.688,-69.742c10.696,-1.283 29.096,-3.85 40.646,-5.562c26.529,-3.85 145.046,-2.996 162.591,0.858c21.392,5.134 72.309,30.375 105.68,53.054c17.116,11.55 37.654,24.388 45.783,28.667c14.121,7.275 14.121,7.275 27.812,-5.992c24.813,-23.958 50.488,-32.087 100.975,-31.662c52.625,0.429 67.175,2.142 113.384,14.121c39.362,10.271 47.066,12.837 96.271,33.375c43.212,17.971 76.587,34.229 83.433,41.075c2.996,2.566 11.55,9.412 19.254,15.404c7.7,5.987 16.258,12.833 18.825,15.4c8.129,8.129 23.958,14.975 27.813,12.408c7.7,-4.704 17.97,3.425 26.954,20.967c7.275,14.975 29.096,44.925 44.071,60.758c2.137,2.567 14.116,15.829 25.67,29.521c49.205,56.904 110.388,120.658 145.475,151.038c28.238,23.958 50.059,34.229 80.867,37.22c14.117,1.713 29.521,5.563 35.083,8.988c5.134,3.85 19.684,7.275 32.517,8.129c12.408,0.854 32.946,2.567 45.354,4.279c32.946,4.279 36.796,1.713 28.242,-17.971c-3.854,-8.983 40.646,31.234 56.05,33.8c7.271,1.284 8.554,-0.854 8.129,-13.691c-0.429,-8.129 14.117,-23.104 18.825,-11.979c12.838,28.666 44.496,42.787 67.604,29.95c9.413,-5.134 20.963,-4.28 47.063,2.995c16.687,4.28 31.662,2.996 31.662,-3.425c0,-1.283 18.4,2.142 23.963,13.267c6.416,12.408 12.408,14.546 22.675,8.129c6.846,-4.708 19.683,-44.5 20.966,-18.4c1.284,23.104 22.246,43.642 44.496,43.642c13.267,-0 44.925,12.408 66.746,26.1c9.842,6.421 21.825,10.7 26.1,9.412c11.554,-2.991 41.075,14.121 63.754,37.225c11.125,11.555 30.804,25.675 43.642,31.663c12.837,5.992 32.092,15.833 42.787,22.25c43.642,26.1 55.192,31.233 69.742,32.517c9.413,0.429 20.538,5.562 29.096,12.837c7.271,6.417 15.829,12.408 18.396,12.408c2.566,0.425 8.987,0.855 14.546,1.284c9.841,0.425 91.566,52.2 109.108,77.016c9.412,14.117 19.679,23.959 25.242,24.813c5.562,0.858 16.258,10.271 25.245,22.679c8.984,11.55 18.396,23.104 21.392,25.671c30.808,25.671 108.679,112.1 127.933,142.05c14.546,22.679 23.105,32.092 36.796,38.083c10.696,5.134 50.488,65.034 56.05,75.729c7.7,15.405 8.559,56.48 44.5,75.734c9.413,5.133 22.246,50.058 26.954,61.183c0,0 32.517,89.854 32.517,97.554c0,11.979 15.833,48.35 19.254,63.75c3.425,15.404 8.129,52.629 7.275,67.604c-1.712,20.538 -43.216,87.713 -45.354,93.705c-3.85,8.983 -55.196,78.295 -47.492,78.725c3.421,0.429 -32.52,26.1 -59.475,68.029c-17.97,28.666 -50.058,68.033 -62.466,79.158c-15.404,14.117 -55.625,54.767 -66.321,65.033c-9.842,10.271 -47.492,34.23 -58.187,39.792c3.482,32.946 -310.037,113.072 -367.699,138.753c-33.985,15.136 -375.832,121.979 -384.819,149.787c-7.426,10.407 -1.225,41.504 30.946,56.955c83.398,40.055 191.607,153.133 212.856,139.331c-1.283,9.842 14.123,24.558 13.269,30.121c-1.288,5.991 19.659,20.311 18.376,28.441c-1.284,8.129 -3.85,20.537 -5.563,27.812c-2.137,6.846 -30.804,-1.283 -44.925,-8.129c-8.129,-3.85 -15.833,-10.696 -17.542,-14.975c-3.425,-11.554 -13.266,-13.692 -20.966,-5.138c-6.417,7.275 -6.846,9.417 -0.429,26.53c3.85,10.27 7.704,32.091 8.558,48.775c0.854,16.262 2.137,36.37 2.567,43.645c1.283,18.396 -14.975,49.63 -38.08,74.021c-25.67,26.525 -52.2,15.829 -62.041,19.679c-10.267,3.85 -17.542,-10.695 -17.113,-32.945c0.854,-23.959 -5.991,-33.8 -23.962,-33.8c-11.125,-0 -11.979,1.283 -10.696,13.691c0.854,7.7 -0.854,17.971 -3.85,23.104c-14.546,24.388 -33.8,53.055 -36.371,53.484c-1.708,-0 -5.987,0.854 -9.412,1.283c-3.421,0.854 -11.125,-0.429 -16.684,-2.137c-10.27,-4.28 -10.27,-2.996 -2.995,-40.221c2.566,-13.263 -5.992,-21.392 -38.509,-38.509c-35.941,-18.825 -46.208,-29.52 -59.9,-60.329c-5.562,-12.833 -12.837,-23.958 -15.833,-25.241c-2.567,-0.859 -17.113,-2.571 -31.663,-3.425c-26.954,-2.138 -37.225,-6.417 -82.575,-34.23c-33.375,-20.108 -38.937,-20.966 -70.6,-9.841c-35.941,12.408 -65.462,11.125 -119.8,-6.417c-37.654,-12.408 -62.041,-14.121 -76.587,-6.417c-6.846,3.421 -14.121,5.563 -15.833,4.28c-3.421,-2.142 -38.934,11.12 -60.33,22.245c-5.987,3.425 -13.691,5.992 -17.112,5.992c-2.996,0 -11.125,2.996 -17.971,6.417c-6.417,3.425 -16.688,7.275 -22.679,8.129c-5.563,1.283 -16.684,5.992 -23.959,10.696c-30.808,19.254 -41.075,22.25 -56.908,15.404c-14.116,-5.563 -14.546,-5.563 -28.237,8.987c-9.842,10.267 -17.542,14.546 -26.954,14.546c-6.846,0 -21.396,5.134 -32.092,11.125c-11.979,6.846 -22.25,9.842 -28.667,8.129c-8.129,-1.712 -11.979,1.284 -22.25,17.971c-21.821,35.942 -32.087,47.492 -43.641,50.059c-6.417,1.283 -14.117,4.708 -17.542,8.129c-2.996,3.425 -10.267,8.129 -15.829,11.125c-8.13,4.708 -11.125,4.279 -17.971,-1.713c-5.992,-5.558 -6.846,-9.412 -3.85,-15.4c2.991,-5.137 2.991,-8.558 -0,-10.271c-2.142,-1.283 -4.279,-0.425 -4.279,1.713c-0,6.417 -30.38,39.362 -34.23,36.796c-3.425,-2.138 -55.195,29.95 -62.47,38.937c-3.85,4.704 -13.692,8.554 -28.238,9.838c-1.712,0.429 -5.562,2.996 -8.558,5.991c-2.996,2.996 -16.688,10.696 -29.95,17.542c-13.692,6.421 -24.817,13.267 -24.817,15.404c0,2.138 -7.7,5.992 -17.112,8.559c-9.413,2.566 -20.967,8.558 -25.246,13.691c-8.559,8.559 -25.242,8.129 -19.679,-0.858c1.708,-2.567 3.42,-8.983 4.704,-14.975c1.712,-8.983 0.429,-9.838 -9.842,-8.129c-15.4,2.566 -36.796,17.116 -63.321,41.933c-11.983,11.125 -30.808,25.242 -42.362,31.233c-17.967,8.984 -23.958,10.267 -38.504,6.846c-15.834,-3.425 -18.4,-2.566 -26.959,7.275c-5.562,5.988 -9.841,12.404 -9.841,14.975c-0.425,6.846 -48.775,28.667 -56.475,25.671c-3.85,-1.712 -10.271,-7.275 -13.692,-12.837c-6.421,-9.842 -7.704,-9.842 -22.679,-4.28c-8.984,2.996 -22.675,8.988 -30.804,12.838c-7.704,4.279 -19.255,7.275 -25.671,7.275c-6.421,-0 -14.55,4.279 -19.684,10.267c-20.108,23.104 -57.333,14.975 -51.77,-11.98c2.996,-14.975 -2.142,-15.404 -16.259,-1.283c-6.845,6.846 -19.254,12.408 -32.52,14.975c-16.259,2.996 -25.242,8.129 -35.938,18.825c-13.267,14.121 -15.404,14.975 -41.933,14.975c-14.975,0 -36.367,0.858 -47.063,2.567c-21.821,3.425 -23.533,2.141 -27.383,-21.821c-3.425,-22.675 -15.404,-46.208 -23.963,-47.921c-8.129,-1.708 -16.258,11.125 -19.254,30.808c-0.854,7.271 -4.704,17.542 -8.129,23.105c-5.133,7.7 -7.7,8.558 -14.546,5.133c-4.708,-2.567 -10.696,-8.558 -13.266,-14.121c-8.13,-15.829 -17.113,-23.958 -23.53,-21.392c-3.425,1.284 -5.991,5.134 -5.991,8.559c-0,26.525 -36.367,69.312 -48.35,57.333c-8.13,-8.129 -13.263,-5.133 -23.534,12.838c-8.129,14.116 -11.979,17.112 -21.391,15.829c-10.696,-1.284 -11.55,-2.567 -11.55,-22.675c-0,-11.984 0.854,-22.25 2.566,-23.534c3.421,-2.566 8.13,-29.95 5.563,-29.95c-1.284,0 -7.704,11.98 -14.55,26.955c-6.846,14.975 -15.404,29.52 -19.254,32.945c-3.421,2.996 -11.98,17.113 -18.825,31.663c-15.83,34.654 -22.25,39.362 -41.505,33.371c-8.554,-2.567 -25.241,-3.85 -37.22,-2.992c-12.409,0.854 -23.963,0.425 -26.1,-0.858c-1.713,-1.284 -11.555,-2.567 -21.396,-2.996c-9.413,-0.425 -20.538,-2.138 -24.388,-3.85c-5.133,-2.567 -10.695,2.996 -23.533,22.679c-19.254,30.375 -38.508,44.496 -55.192,40.217c-10.7,-2.567 -21.395,-15.829 -17.545,-22.246c1.283,-1.713 0.429,-5.992 -1.709,-8.988c-5.991,-10.266 -30.808,8.559 -78.3,59.475c-5.562,5.988 -14.121,13.263 -19.254,15.83c-11.554,6.845 -33.375,7.275 -37.225,0.854c-4.279,-5.988 1.713,-26.096 6.417,-23.104c9.412,5.991 33.375,-17.971 40.65,-40.217c2.991,-10.271 2.991,-10.271 -14.55,2.567c-9.413,6.845 -23.104,20.108 -30.38,29.095c-6.845,8.984 -12.833,14.546 -12.833,12.834c0,-2.138 -7.275,4.279 -16.258,13.691c-20.967,21.821 -25.246,23.105 -43.642,14.121c-8.129,-3.85 -20.537,-6.846 -26.958,-6.416c-6.417,0.425 -13.263,-1.713 -15.4,-5.138c-2.571,-5.133 -6.421,-5.133 -25.246,0.858c-19.683,6.417 -24.817,11.125 -44.071,37.65c-24.387,33.375 -38.508,48.35 -70.171,73.592c-11.979,9.417 -25.241,20.538 -29.95,24.817c-4.704,4.279 -20.108,14.975 -34.229,23.533c-14.117,8.558 -28.667,19.254 -32.517,24.388c-3.85,4.708 -11.554,13.266 -16.687,19.254c-5.133,5.991 -17.971,20.966 -29.096,33.804c-11.121,12.833 -23.529,26.1 -28.237,29.95c-4.28,3.85 -21.392,19.679 -38.08,35.937c-27.383,26.1 -31.662,28.671 -43.641,26.1c-11.554,-2.137 -15.404,0 -28.242,14.55c-18.396,21.392 -38.933,31.663 -58.187,29.95c-12.409,-0.854 -17.542,1.284 -29.096,13.263c-7.7,7.704 -20.538,15.404 -28.238,17.117c-11.979,2.566 -14.55,5.133 -15.404,14.545c-0.429,7.275 -10.696,23.963 -27.383,43.642c-14.975,17.542 -29.95,38.938 -33.375,47.496c-5.988,14.975 -5.563,17.112 5.562,38.504c13.267,24.817 15.834,26.529 50.063,29.525c12.833,1.283 31.662,4.704 42.358,7.7c15.829,4.708 24.388,4.708 49.204,0c28.667,-5.562 65.463,-10.696 79.154,-10.696c3.425,0 12.409,-1.712 20.109,-4.279c7.704,-2.137 21.821,-3.85 31.237,-4.279c11.55,-0 18.825,-2.567 20.109,-6.417c3.85,-10.271 18.825,-13.262 40.22,-7.7c15.83,4.275 21.392,4.275 29.95,-0.429c5.563,-2.996 14.975,-5.562 20.963,-5.992c5.992,0.001 16.258,-2.995 23.104,-6.416c18.4,-9.842 37.654,-12.838 93.704,-14.975c1.713,-0 5.563,-4.708 8.129,-10.696c5.563,-11.983 12.409,-13.267 35.942,-4.708c13.692,4.708 20.538,4.708 38.079,0.429c11.979,-2.996 28.238,-6.417 36.367,-7.704c8.133,-1.284 19.683,-3.85 26.1,-6.417c5.992,-2.138 17.546,-4.279 25.675,-4.279c7.7,-0 20.108,-2.138 27.383,-5.133c6.846,-2.567 20.538,-5.992 29.95,-7.275c9.413,-1.284 22.25,-4.705 28.667,-8.13c5.987,-2.995 19.254,-6.846 29.521,-8.129c10.271,-1.283 25.246,-4.279 33.804,-6.417c8.129,-2.141 21.821,-5.133 29.95,-6.416c8.129,-1.283 19.679,-3.425 25.671,-4.279c5.991,-1.284 23.104,-2.996 38.508,-4.279c15.404,-1.284 30.804,-2.996 34.229,-4.28c3.421,-0.854 14.975,-2.995 25.671,-4.279c10.696,-1.712 29.95,-6.416 43.217,-11.125c13.262,-4.704 29.521,-8.129 36.366,-7.7c17.971,1.284 30.805,-3.85 33.8,-13.262c3.425,-10.7 17.542,-14.55 41.505,-11.125c14.12,2.137 22.675,0.425 35.512,-6.421c11.125,-5.988 26.1,-9.838 42.788,-10.267c29.095,-0.858 40.645,-4.708 40.645,-13.262c0,-8.134 12.409,-13.267 32.092,-11.984c9.413,0.43 24.817,-2.137 34.229,-5.562c17.113,-6.417 68.459,-21.392 87.284,-25.242c5.562,-1.283 30.379,-8.129 55.195,-14.975c49.63,-14.55 47.921,-14.121 84.288,-22.679c14.121,-2.996 31.662,-7.7 38.508,-10.267c40.221,-13.266 66.317,-20.112 81.296,-20.537c9.413,-0 27.808,-3.85 40.646,-7.704c12.833,-3.85 23.533,-6.846 23.533,-6.417c0,0.429 3.85,-0.429 8.555,-1.712c4.708,-1.709 10.699,-7.271 12.837,-12.409c4.279,-9.837 17.971,-12.408 32.517,-5.987c6.845,2.996 26.958,-11.125 22.25,-16.259c-1.284,-1.283 2.137,-2.566 7.7,-2.995c50.491,-2.142 67.604,-5.134 83.862,-13.692c10.696,-5.992 72.308,-17.971 98.408,-19.683c2.567,-0.425 5.992,-3.85 7.275,-8.13c2.996,-8.129 3.421,-8.558 105.255,-9.841c63.325,-0.854 82.15,2.566 128.358,24.816l40.65,19.684l66.317,0.854c68.458,0.858 95.841,-3.85 120.229,-19.679c9.841,-6.846 46.212,-12.838 80.866,-13.692c28.242,-0.858 48.78,5.133 62.896,18.396c17.546,16.687 28.667,20.537 52.629,18.4c45.784,-3.85 80.438,-3.425 96.696,1.283c9.842,2.567 34.229,4.279 55.625,2.996c204.946,-8.987 208.796,-8.558 239.175,25.242c23.534,26.1 35.513,50.916 38.509,80.437c1.712,17.546 -34.23,42.359 -44.925,31.663c-3.425,-3.421 -6.846,-15.829 -8.13,-28.667c-0.858,-6.417 -17.97,-2.567 -50.062,12.408c-50.917,23.105 -56.05,24.817 -79.583,23.534c-23.959,-1.284 -42.359,-0.854 -63.321,1.712c-12.838,1.709 -28.667,2.996 -35.088,2.996l-27.808,0c-8.988,0.425 -37.225,0 -62.471,-0.429c-37.225,-0.429 -50.058,1.283 -64.608,7.275c-9.838,4.704 -21.392,7.271 -26.1,6.417c-24.388,-5.563 -35.513,-5.992 -38.079,-1.713c-1.713,2.567 -7.7,4.708 -13.692,4.708c-14.117,0 -12.833,8.555 2.996,23.959c7.275,6.846 17.971,21.396 23.533,32.516c5.563,11.125 13.692,21.821 17.542,23.963c4.279,2.137 27.812,3.85 52.629,4.279c24.813,0 54.767,1.283 66.317,2.567c11.979,1.283 32.091,3.421 44.925,5.133c24.391,2.567 33.804,3.85 72.737,10.271c12.838,2.137 32.946,2.992 44.071,1.708c15.404,-1.283 19.683,-0.425 17.542,3.854c-1.713,2.567 -1.713,3.85 0.429,2.138c1.712,-1.713 6.416,-0.854 10.266,2.137c5.992,4.709 6.421,4.28 0.43,-2.991c-5.992,-7.704 -5.563,-7.704 3.425,-5.138c5.562,1.713 9.412,1.284 9.412,-1.283c0,-2.138 4.279,-3.421 9.413,-2.567c8.558,1.713 40.216,3.85 131.783,8.559c41.5,2.137 91.987,17.112 120.654,35.512c20.967,13.263 26.1,19.254 34.229,39.363c9.417,23.962 19.254,35.512 26.529,31.233c7.275,-4.704 22.68,25.675 8.13,25.675c-17.542,-0 -27.384,2.137 -28.667,5.562c-2.567,6.846 -23.104,17.542 -38.508,20.538c-9.842,1.708 -13.263,-0.429 -20.538,-12.838c-4.704,-7.7 -11.55,-14.545 -15.404,-14.975c-4.275,0 -11.121,-0.854 -15.4,-1.712c-4.708,-0.854 -13.692,1.283 -20.538,4.708c-9.412,4.704 -18.4,5.563 -36.795,3.421c-41.934,-5.562 -90.709,-2.996 -106.113,5.138c-12.408,6.845 -15.404,6.845 -24.817,1.708c-8.983,-4.704 -13.262,-4.704 -20.537,-0.425c-8.129,3.85 -12.833,3.421 -26.525,-3.425c-12.408,-6.417 -18.829,-7.7 -24.817,-4.279c-5.137,2.566 -12.837,2.996 -22.25,0.429c-10.696,-2.996 -17.971,-2.142 -30.808,3.421c-12.404,5.991 -18.396,6.846 -24.813,3.425c-7.704,-4.279 -26.529,-6.417 -77.445,-9.842c-11.55,-0.854 -36.796,-2.996 -55.621,-4.704c-45.354,-4.279 -122.8,-3.425 -180.559,2.137c-2.566,0.43 -11.125,5.563 -18.4,11.555c-11.125,9.837 -16.258,11.12 -32.516,8.983c-19.254,-2.138 -19.684,-1.713 -25.671,12.837c-6.846,15.83 -8.558,17.113 -32.946,19.68c-17.117,2.141 -29.096,9.412 -27.383,16.687c0.425,2.567 24.387,12.838 53.054,22.675c45.779,15.404 66.317,26.1 91.133,46.213c8.559,6.845 30.809,36.795 38.084,50.487c8.554,17.542 5.987,83.863 -4.28,96.271c-8.558,10.267 -25.245,6.846 -46.212,-10.7c-29.092,-23.958 -34.654,-26.1 -80.438,-27.808c-65.891,-2.567 -96.695,-7.275 -106.108,-15.834c-14.121,-12.833 -58.191,-30.804 -74.021,-30.379c-15.833,0.858 -27.383,-4.275 -40.65,-16.683c-4.704,-3.854 -17.112,-9.842 -28.237,-12.409c-10.696,-2.566 -27.384,-8.129 -36.796,-12.837c-14.546,-6.846 -18.4,-6.846 -27.813,-2.138c-13.691,7.271 -46.208,16.259 -59.9,16.684c-8.983,0.429 -10.695,2.571 -11.125,14.975c0,18.4 -19.254,36.8 -31.233,30.808c-9.412,-5.133 -15.404,-1.283 -19.683,12.408c-1.709,5.992 -5.988,14.121 -9.413,17.971c-5.987,6.417 -7.7,6.846 -18.396,1.284c-8.558,-4.28 -12.837,-4.709 -16.262,-1.284c-5.558,5.563 -28.238,-7.275 -24.388,-13.691c1.713,-2.567 0.859,-4.28 -1.283,-4.28c-2.137,0 -5.562,-4.279 -8.129,-9.412c-7.7,-17.117 -36.367,-46.638 -53.908,-55.196c-22.25,-11.55 -60.759,-15.404 -101.405,-10.267c-8.129,0.855 -27.383,2.992 -42.358,4.275c-16.262,1.288 -30.808,5.138 -35.087,8.988c-9.842,8.983 -26.525,10.267 -50.488,4.279c-20.108,-5.562 -39.362,-5.562 -73.167,-0.429c-10.695,1.283 -35.083,2.996 -54.766,3.85c-19.25,0.858 -36.367,2.567 -37.65,3.85c-1.284,1.287 -9.413,-0 -17.971,-2.992c-19.254,-6.846 -64.179,-5.991 -212.65,3.421c-14.117,0.858 -35.083,2.996 -47.063,4.279c-11.554,1.713 -29.95,3.85 -40.65,4.709c-10.695,1.283 -22.245,2.991 -25.67,4.275c-3.421,0.858 -13.263,2.995 -21.392,4.279c-8.129,1.283 -27.383,6.421 -42.788,10.7c-15.404,4.704 -29.095,8.554 -30.804,8.554c-1.712,0.429 -21.316,0.9 -36.721,5.179c-28.237,7.704 -176.783,29.479 -227.7,39.746c-5.991,1.287 -16.258,2.996 -23.533,4.279c-6.846,0.858 -17.542,2.996 -23.533,3.854c-5.992,1.284 -18.396,3.421 -27.813,4.704c-9.412,1.713 -21.821,3.425 -27.808,4.28c-10.271,1.712 -19.254,3.85 -38.508,8.558c-15.405,3.85 -24.388,5.562 -41.075,8.129c-8.988,1.713 -28.242,5.988 -42.359,9.413c-14.121,3.85 -29.096,7.7 -33.375,8.558c-4.279,0.854 -11.125,2.137 -14.975,3.421c-3.85,1.283 -11.979,2.996 -17.971,4.279c-44.495,8.129 -121.941,25.671 -143.333,32.517c-27.383,8.987 -42.358,11.983 -66.746,14.975c-26.1,2.566 -118.946,22.679 -177.137,38.508c-30.379,8.129 -59.475,15.833 -63.75,17.117c-4.279,0.854 -27.813,8.554 -51.775,16.687c-46.209,15.829 -68.459,21.392 -100.546,25.671c-10.696,1.283 -26.1,4.704 -34.229,7.271c-8.129,2.141 -19.684,5.137 -25.671,6.421c-5.992,1.283 -13.692,5.133 -17.971,8.558c-14.975,14.117 -40.65,9.837 -112.529,-17.546c-16.258,-6.417 -35.513,-11.979 -42.788,-12.408c-16.258,-0.854 -32.087,-6.417 -32.087,-10.696c-0,-1.713 -7.704,-6.846 -17.546,-11.125c-16.258,-7.7 -17.967,-7.7 -29.521,-0.854Z" style="fill:#f30;"/></svg>